<?xml version="1.0" encoding="utf-8"?>
<!-- Generator: Adobe Illustrator 23.0.3, SVG Export Plug-In . SVG Version: 6.00 Build 0)  -->
<svg version="1.1" id="Icons" xmlns="http://www.w3.org/2000/svg" xmlns:xlink="http://www.w3.org/1999/xlink" x="0px" y="0px"
	 viewBox="0 0 32 32" style="enable-background:new 0 0 32 32;" xml:space="preserve">
<style type="text/css">
	.st0{fill:none;stroke:#000000;stroke-width:2;stroke-linecap:round;stroke-linejoin:round;stroke-miterlimit:10;}
</style>
<circle class="st0" cx="23" cy="7" r="3"/>
<path class="st0" d="M8,10l2.8-2.8C12,6,14,6,15.2,7.2l7.9,7.9c1.1,1.1,2.8,1.2,4.1,0.2L30,13"/>
<path class="st0" d="M17,10l-4.7,4.7c-1.5,1.5-1,4.2,1,5l3.9,1.5c1.1,0.4,1.9,1.5,1.9,2.7v6"/>
<path class="st0" d="M14,20l-2.6,2.6c-0.8,0.8-2.1,0.8-2.8,0L5,19"/>
<line class="st0" x1="16" y1="18" x2="21" y2="13"/>
</svg>
